<svg xmlns="http://www.w3.org/2000/svg" xmlns:xlink="http://www.w3.org/1999/xlink" width="22" height="22" viewBox="0 0 22 22">
    <defs>
        <path id="a" d="M.003 22H22V0H.003z"/>
    </defs>
    <g fill="none" fill-rule="evenodd">
        <g>
            <mask id="b" fill="#fff">
                <use xlink:href="#a"/>
            </mask>
            <path fill="#E83E00" d="M11 1.719A9.276 9.276 0 0 0 1.719 11 9.276 9.276 0 0 0 11 20.281 9.276 9.276 0 0 0 20.281 11 9.276 9.276 0 0 0 11 1.719zM11 22C4.92 22 0 17.08 0 11S4.92 0 11 0s11 4.92 11 11-4.92 11-11 11z" mask="url(#b)"/>
        </g>
        <path fill="#E83E00" d="M14.855 14.315l-4.297-2.578A.86.86 0 0 1 10.14 11V4.125a.86.86 0 1 1 1.718 0v6.388l3.88 2.328a.86.86 0 1 1-.884 1.474"/>
    </g>
</svg>
