<svg xmlns="http://www.w3.org/2000/svg" width="20" height="20" viewBox="0 0 20 20">
    <path fill="#FFF" fill-rule="evenodd" d="M16.183 12.711a3.61 3.61 0 0 0-2.845 1.396l-6.192-3.165c.081-.301.138-.613.138-.942 0-.36-.066-.697-.164-1.022l6.16-3.151a3.618 3.618 0 0 0 2.903 1.458 3.638 3.638 0 0 0 3.644-3.64 3.644 3.644 0 0 0-7.285 0c0 .328.058.64.139.941L6.493 7.752a3.622 3.622 0 0 0-2.849-1.396 3.644 3.644 0 1 0 0 7.288 3.625 3.625 0 0 0 2.903-1.466l6.16 3.151a3.57 3.57 0 0 0-.169 1.027 3.644 3.644 0 1 0 3.644-3.644z"/>
</svg>
